<mxfile host="app.diagrams.net" modified="2021-04-01T13:21:56.494Z" agent="5.0 (X11; Linux x86_64) AppleWebKit/537.36 (KHTML, like Gecko) Chrome/89.0.4389.90 Safari/537.36" etag="mwpXaXGjtjbbP66F46aW" version="14.5.4" type="github">
  <diagram id="GBvyetaznge-NeFWqSJX" name="Page-1">
    <mxGraphModel dx="470" dy="680" grid="1" gridSize="10" guides="1" tooltips="1" connect="1" arrows="1" fold="1" page="1" pageScale="1" pageWidth="850" pageHeight="1100" math="0" shadow="0">
      <root>
        <mxCell id="0" />
        <mxCell id="1" parent="0" />
      </root>
    </mxGraphModel>
  </diagram>
</mxfile>
